# xmcd
#
# Track frame offsets:
#	150
#	19180
#	32690
#	45620
#	64135
#	77103
#	92029
#	110854
#	130208
#	146084
#	159115
#	173660
#	188016
#	203429
#	220182
#	237148
#	251139
#	269203
#	283319
#	301191
#
# Disc length: 4296 seconds
#
# Revision: 1
# Processed by: cddbd v1.5.2PL0 Copyright (c) Steve Scherf et al.
# Submitted via: EZCDAudioConverter 2.2.2.1
#
DISCID=2110c614
DTITLE=Vários - Bailão De Peão - Novo Millennium
DYEAR=2005
DGENRE=Country
TTITLE0=Rionegro and Solimões - Clima De Rodeio
TTITLE1=Chitãozinho and Xororó - 100% Adrenalina
TTITLE2=Roberta Miranda - Atração Fatal
TTITLE3=Emílio and Eduardo - Você Virou Saudade
TTITLE4=Rionegro and Solimões - Na Sola Da Bota
TTITLE5=Chitãozinho and Xororó - Galinhada
TTITLE6=Tradição - Habanera Das Meninas Carinhosas
TTITLE7=André and Adriano - A Jiripoca Vai Piá
TTITLE8=Rionegro and Solimões - Só Alegria
TTITLE9=Chitãozinho and Xororó - Na Aba Do Meu Chapéu
TTITLE10=Almir Rogério - Fuscão Preto
TTITLE11=Tonico and Tinoco - O Menino Da Porteira
TTITLE12=Rionegro and Solimões - No Pique Do Rodeio
TTITLE13=Chitãozinho and Xororó - Frete
TTITLE14=Maurício and Mauri - Excesso De Amor
TTITLE15=Adalberto and Adriano - Não Acredito
TTITLE16=Tradição - Brasileira
TTITLE17=Rionegro and Solimões - Peão Apaixonado
TTITLE18=Roberta Miranda - Cowboy Dos Sonhos
TTITLE19=Nalva Aguiar - Oração De Peão De Boiadeiro
EXTD=
EXTT0=
EXTT1=
EXTT2=
EXTT3=
EXTT4=
EXTT5=
EXTT6=
EXTT7=
EXTT8=
EXTT9=
EXTT10=
EXTT11=
EXTT12=
EXTT13=
EXTT14=
EXTT15=
EXTT16=
EXTT17=
EXTT18=
EXTT19=
PLAYORDER=
